<svg width="48" height="49" viewBox="0 0 48 49" fill="none" xmlns="http://www.w3.org/2000/svg">
<rect width="48" height="49" fill="#282828"/>
<g id="Registration Page 2">
<rect width="1440" height="2208" transform="translate(-157 -1271)" fill="white"/>
<g id="Rectangle 2" filter="url(#filter0_d_195_245)">
<path d="M-86 -892C-86 -908.568 -72.5685 -922 -56 -922H582V699H-56C-72.5685 699 -86 685.568 -86 669V-892Z" fill="#FFBB00"/>
</g>
<g id="div.contact-feature">
<rect x="-41.5" y="-41.5" width="459" height="131" rx="9.5" fill="white"/>
<rect x="-41.5" y="-41.5" width="459" height="131" rx="9.5" stroke="#ECF1F9"/>
<g id="div.contact-feature-icon">
<rect x="-11" y="-11" width="70" height="70" rx="10" fill="#242424"/>
<g id="call">
<mask id="mask0_195_245" style="mask-type:alpha" maskUnits="userSpaceOnUse" x="0" y="0" width="48" height="49">
<rect id="Bounding box" y="0.390015" width="48" height="48" fill="#D9D9D9"/>
</mask>
<g mask="url(#mask0_195_245)">
<path id="call_2" d="M39.9 42.39C35.7333 42.39 31.6167 41.4817 27.55 39.665C23.4833 37.8484 19.7833 35.2733 16.45 31.94C13.1167 28.6067 10.5417 24.9067 8.725 20.84C6.90833 16.7733 6 12.6567 6 8.49001C6 7.89001 6.2 7.39001 6.6 6.99001C7 6.59001 7.5 6.39001 8.1 6.39001H16.2C16.6667 6.39001 17.0833 6.54835 17.45 6.86501C17.8167 7.18168 18.0333 7.55668 18.1 7.99001L19.4 14.99C19.4667 15.5233 19.45 15.9733 19.35 16.34C19.25 16.7067 19.0667 17.0233 18.8 17.29L13.95 22.19C14.6167 23.4233 15.4083 24.615 16.325 25.765C17.2417 26.915 18.25 28.0233 19.35 29.09C20.3833 30.1233 21.4667 31.0817 22.6 31.965C23.7333 32.8483 24.9333 33.6567 26.2 34.39L30.9 29.69C31.2 29.39 31.5917 29.165 32.075 29.015C32.5583 28.865 33.0333 28.8233 33.5 28.89L40.4 30.29C40.8667 30.4233 41.25 30.665 41.55 31.015C41.85 31.365 42 31.7567 42 32.19V40.29C42 40.89 41.8 41.39 41.4 41.79C41 42.19 40.5 42.39 39.9 42.39Z" fill="white"/>
</g>
</g>
</g>
</g>
</g>
<defs>
<filter id="filter0_d_195_245" x="-121" y="-943" width="738" height="1691" filterUnits="userSpaceOnUse" color-interpolation-filters="sRGB">
<feFlood flood-opacity="0" result="BackgroundImageFix"/>
<feColorMatrix in="SourceAlpha" type="matrix" values="0 0 0 0 0 0 0 0 0 0 0 0 0 0 0 0 0 0 127 0" result="hardAlpha"/>
<feOffset dy="14"/>
<feGaussianBlur stdDeviation="17.5"/>
<feComposite in2="hardAlpha" operator="out"/>
<feColorMatrix type="matrix" values="0 0 0 0 0 0 0 0 0 0 0 0 0 0 0 0 0 0 0.25 0"/>
<feBlend mode="normal" in2="BackgroundImageFix" result="effect1_dropShadow_195_245"/>
<feBlend mode="normal" in="SourceGraphic" in2="effect1_dropShadow_195_245" result="shape"/>
</filter>
</defs>
</svg>
